<svg width="224" height="40" viewBox="0 0 224 40" fill="none" xmlns="http://www.w3.org/2000/svg">
    <path fill-rule="evenodd" clip-rule="evenodd" d="M10.1727 19.5167C11.1482 19.6667 12.0968 19.9681 12.9851 20.4123C13.8496 20.8445 14.2 21.8957 13.7678 22.7602C13.3355 23.6246 12.2844 23.975 11.4199 23.5428C10.6173 23.1415 9.73935 22.9251 8.84644 22.9076H8.82935C1.73816 23.4805 1.70895 33.7914 8.82948 34.3676H30.9555C33.2143 34.3843 35.3859 33.548 37.0382 32.0292L37.0656 32.0045C39.4122 29.9369 40.213 26.9901 39.755 24.1569C39.6007 23.2028 40.2491 22.3043 41.2032 22.15C42.1573 21.9957 43.0558 22.6441 43.2101 23.5983C43.8312 27.4401 42.7556 31.6474 39.3924 34.6191C37.0882 36.7304 34.0687 37.889 30.9365 37.8676H8.76252C8.72012 37.8676 8.67774 37.866 8.63545 37.8629C-2.12958 37.0792 -2.86051 22.2767 6.61523 19.7461C5.1957 13.8604 7.103 8.99366 10.6316 5.86554C14.4511 2.47959 20.0827 1.2168 24.9784 2.79163C25.8985 3.0876 26.4044 4.07339 26.1084 4.99345C25.8125 5.91352 24.8267 6.41945 23.9066 6.12349C20.2223 4.93832 15.8739 5.89553 12.9534 8.48458C10.3179 10.821 8.76449 14.5631 10.1727 19.5167Z" fill="#292D32"/>
    <path fill-rule="evenodd" clip-rule="evenodd" d="M31.0584 9.11894C31.0128 9.17697 30.9633 9.23236 30.9102 9.2847C29.9526 10.2273 29.3725 11.5226 29.3725 12.9576C29.3725 15.8511 31.729 18.2076 34.6225 18.2076C35.8516 18.2076 37.0035 17.7716 37.8781 17.0601L37.8975 17.0443L37.8976 17.0444C39.1101 16.0864 39.8725 14.6065 39.8725 12.9576C39.8725 10.0641 37.516 7.70756 34.6225 7.70756C33.2469 7.70756 31.9867 8.24031 31.0584 9.11894ZM28.4354 6.7899C30.0167 5.18351 32.2228 4.20756 34.6225 4.20756C39.449 4.20756 43.3725 8.13106 43.3725 12.9576C43.3725 15.7042 42.0991 18.1807 40.0772 19.7829C38.5932 20.9866 36.6689 21.7076 34.6225 21.7076C29.796 21.7076 25.8725 17.7841 25.8725 12.9576C25.8725 10.6351 26.7862 8.51823 28.2919 6.95515C28.336 6.89743 28.3839 6.84222 28.4354 6.7899Z" fill="#FFC700"/>
    <path d="M69.1785 21.4296C71.2425 20.6856 72.5625 18.8616 72.5625 16.4136C72.5625 13.5576 70.4985 11.1576 66.9465 11.1576H59.5785V27.9576H62.8665V21.8136H65.6985L69.5625 27.9576H73.3545V27.7176L69.1785 21.4296ZM62.8665 14.1096H66.7785C68.4345 14.1096 69.1785 15.1656 69.1785 16.4376C69.1785 17.7816 68.4585 18.8856 66.7785 18.8856H62.8665V14.1096Z" fill="black"/>
    <path d="M80.5526 28.1736C83.7686 28.1736 85.8086 26.3256 86.1446 24.0696H83.0006C82.7606 24.8376 81.9926 25.5096 80.5526 25.5096C78.7046 25.5096 77.8406 24.3096 77.8166 22.6056H86.3126V21.3576C86.3126 17.9496 84.2246 15.2616 80.5046 15.2616C76.4966 15.2616 74.5286 18.1896 74.5286 21.7416C74.5286 25.3416 76.6886 28.1736 80.5526 28.1736ZM77.8406 20.4696C77.9126 19.0536 78.7046 17.9496 80.5046 17.9496C82.1846 17.9496 82.9766 19.0536 83.0246 20.4696H77.8406Z" fill="black"/>
    <path d="M92.2091 28.1736C93.8171 28.1736 94.9931 27.5736 95.6891 26.6616H95.7851L96.0251 27.9576H98.8811V19.7016C98.8811 17.1576 96.9371 15.2616 93.5771 15.2616C90.1691 15.2616 88.3931 17.1576 88.3931 19.5096H91.4171C91.4171 18.6216 92.1611 17.9016 93.5051 17.9016C95.0411 17.9016 95.6651 18.7176 95.6651 19.7256V20.8056C95.0891 20.6136 93.9371 20.4216 92.8811 20.4216C89.4011 20.4216 87.8411 22.0296 87.8411 24.2856C87.8411 26.4936 89.4251 28.1736 92.2091 28.1736ZM92.9771 25.6296C91.6811 25.6296 91.0331 25.0056 91.0331 24.1416C91.0331 23.2536 91.7771 22.6536 93.1931 22.6536C94.0331 22.6536 94.8491 22.7496 95.6651 23.0616V23.3256C95.6651 24.5736 94.6571 25.6296 92.9771 25.6296Z" fill="black"/>
    <path d="M106.968 28.1736C110.496 28.1736 112.32 26.0616 112.512 23.2536H109.272C109.128 24.5016 108.288 25.3416 106.896 25.3416C105.072 25.3416 104.16 24.0696 104.16 21.7176C104.16 19.3896 105.072 18.0936 106.896 18.0936C108.264 18.0936 109.128 18.9576 109.248 20.2296H112.488C112.32 17.4456 110.496 15.2616 106.896 15.2616C102.984 15.2616 100.872 17.9256 100.872 21.7176C100.872 25.5576 103.056 28.1736 106.968 28.1736Z" fill="black"/>
    <path d="M119.852 28.1736C120.908 28.1736 121.82 27.9816 122.204 27.8616V25.1736H121.964C121.604 25.2936 121.22 25.3656 120.764 25.3656C119.66 25.3656 119.156 24.8616 119.156 23.6856V18.2136H122.156V15.4776H119.156V12.1896H118.916L116.06 12.8616V15.4776H113.9V18.2136H115.94V24.3816C115.94 26.5896 117.092 28.1736 119.852 28.1736Z" fill="black"/>
    <path d="M135.116 27.9576H137.204L141.092 14.5416H141.188L145.004 27.9576H147.116L151.292 11.3976V11.1576H149.228L146.036 24.6936H145.94L142.196 11.1576H140.036L136.34 24.6936H136.244L133.028 11.1576H130.988V11.3976L135.116 27.9576Z" fill="black"/>
    <path d="M157.99 28.1736C160.606 28.1736 162.766 26.6616 163.102 24.4056H161.086C160.75 25.7016 159.598 26.3736 157.99 26.3736C155.71 26.3736 154.534 24.7656 154.534 22.4376H163.27V21.4536C163.27 18.0456 161.422 15.4776 157.966 15.4776C154.174 15.4776 152.422 18.2856 152.422 21.8376C152.422 25.4376 154.366 28.1736 157.99 28.1736ZM154.558 20.7576C154.63 18.8376 155.662 17.2776 157.966 17.2776C160.15 17.2776 161.182 18.8136 161.182 20.7576H154.558Z" fill="black"/>
    <path d="M169.936 28.1736C171.664 28.1736 173.032 27.4776 173.776 26.2296H173.872L174.016 27.9576H175.72V19.7016C175.72 17.3736 174.064 15.4776 170.92 15.4776C168.232 15.4776 166.264 17.0376 166.264 19.3896H168.208C168.232 18.2136 169.12 17.2056 170.92 17.2056C172.912 17.2056 173.752 18.3816 173.752 19.7496V20.9736C172.984 20.7576 172.024 20.5416 170.728 20.5416C167.128 20.5416 165.664 22.3176 165.664 24.3816C165.664 26.5176 167.272 28.1736 169.936 28.1736ZM170.296 26.4936C168.52 26.4936 167.704 25.5816 167.704 24.3576C167.704 22.9176 168.736 22.1496 170.728 22.1496C171.808 22.1496 172.744 22.2696 173.752 22.5816V23.2056C173.752 24.9816 172.384 26.4936 170.296 26.4936Z" fill="black"/>
    <path d="M183.876 28.1736C184.644 28.1736 185.316 28.0776 185.7 27.9816V26.2536H185.46C185.196 26.3256 184.836 26.3976 184.26 26.3976C183.156 26.3976 182.652 25.8936 182.652 24.7176V17.3976H185.652V15.6936H182.652V12.4056H182.412L180.684 13.0776V15.6936H178.596V17.3976H180.636V24.8856C180.636 26.9256 181.452 28.1736 183.876 28.1736Z" fill="black"/>
    <path d="M188.936 27.9576H190.952V21.2376C190.952 18.7656 192.248 17.2776 194.24 17.2776C196.184 17.2776 197.12 18.3816 197.12 20.3016V27.9576H199.136V19.9896C199.136 17.1816 197.504 15.4776 194.792 15.4776C192.896 15.4776 191.696 16.3656 191.048 17.6136H190.952V10.1976H188.936V27.9576Z" fill="black"/>
    <path d="M207.818 28.1736C210.434 28.1736 212.594 26.6616 212.93 24.4056H210.914C210.578 25.7016 209.426 26.3736 207.818 26.3736C205.538 26.3736 204.362 24.7656 204.362 22.4376H213.098V21.4536C213.098 18.0456 211.25 15.4776 207.794 15.4776C204.002 15.4776 202.25 18.2856 202.25 21.8376C202.25 25.4376 204.194 28.1736 207.818 28.1736ZM204.386 20.7576C204.458 18.8376 205.49 17.2776 207.794 17.2776C209.978 17.2776 211.01 18.8136 211.01 20.7576H204.386Z" fill="black"/>
    <path d="M216.452 27.9576H218.468V22.0056C218.468 19.1256 219.524 17.4936 221.852 17.4936H222.812V15.5496H221.708C220.196 15.5496 218.972 16.3896 218.468 17.7576H218.372L218.204 15.6936H216.452V27.9576Z" fill="black"/>
</svg>
